<svg width="50" height="50" viewBox="0 0 50 50" fill="none" xmlns="http://www.w3.org/2000/svg">
<rect x="2.39625" y="2.5" width="45" height="45" rx="22.5" stroke="#BFCCD6"/>
<path d="M17.6896 32.2562C17.6796 32.1128 17.7233 31.9657 17.8221 31.8327L30.327 17.4668C30.5271 17.2367 30.9035 17.2103 31.1336 17.4104C31.3638 17.6105 31.3901 17.9869 31.19 18.217L18.703 32.5816C18.503 32.8118 18.1266 32.8381 17.8964 32.6381C17.7813 32.538 17.6996 32.3996 17.6896 32.2562Z" fill="white"/>
<path d="M30.9343 27.4393L30.27 17.9391C30.2474 17.6164 30.4808 17.348 30.8035 17.3254C31.1261 17.3028 31.3946 17.5362 31.4172 17.8589L32.0815 27.3591C32.1041 27.6818 31.8707 27.9503 31.548 27.9728C31.2254 27.9954 30.9569 27.762 30.9343 27.4393Z" fill="white"/>
<path d="M20.6163 18.4701C20.5937 18.1475 20.8271 17.879 21.1498 17.8564L30.65 17.1921C30.9727 17.1695 31.2412 17.4029 31.2637 17.7256C31.2863 18.0482 31.0529 18.3167 30.7303 18.3393L21.23 19.0036C20.9074 19.0262 20.6389 18.7928 20.6163 18.4701Z" fill="white"/>
</svg>
